<svg width="27" height="27" viewBox="0 0 27 27" fill="none" xmlns="http://www.w3.org/2000/svg">
<path d="M8.1001 17.55H20.2501C20.9926 17.55 21.6001 18.1575 21.6001 18.9C21.6001 19.6425 20.9926 20.25 20.2501 20.25H6.7501C6.0076 20.25 5.4001 19.6425 5.4001 18.9V5.40001H2.7001C1.9576 5.40001 1.3501 4.79251 1.3501 4.05001C1.3501 3.30751 1.9576 2.70001 2.7001 2.70001H6.7501C7.4926 2.70001 8.1001 3.30751 8.1001 4.05001V6.75001H25.6501L20.2501 16.2H8.1001V17.55ZM7.4251 21.6C8.5456 21.6 9.4501 22.5045 9.4501 23.625C9.4501 24.7455 8.5456 25.65 7.4251 25.65C6.3046 25.65 5.4001 24.7455 5.4001 23.625C5.4001 22.5045 6.3046 21.6 7.4251 21.6ZM19.5751 21.6C20.6956 21.6 21.6001 22.5045 21.6001 23.625C21.6001 24.7455 20.6956 25.65 19.5751 25.65C18.4546 25.65 17.5501 24.7455 17.5501 23.625C17.5501 22.5045 18.4546 21.6 19.5751 21.6Z" fill="white"/>
</svg>
