<svg width="27" height="27" viewBox="0 0 27 27" fill="none" xmlns="http://www.w3.org/2000/svg">
<path d="M20.2849 18.6942L25.1033 23.5114L23.5114 25.1033L18.6941 20.2849C16.9017 21.7218 14.6723 22.5033 12.375 22.5001C6.786 22.5001 2.25 17.9641 2.25 12.3751C2.25 6.78606 6.786 2.25006 12.375 2.25006C17.964 2.25006 22.5 6.78606 22.5 12.3751C22.5033 14.6723 21.7218 16.9018 20.2849 18.6942ZM18.0281 17.8594C19.4559 16.3912 20.2532 14.423 20.25 12.3751C20.25 8.02356 16.7254 4.50006 12.375 4.50006C8.0235 4.50006 4.5 8.02356 4.5 12.3751C4.5 16.7254 8.0235 20.2501 12.375 20.2501C14.423 20.2533 16.3911 19.4559 17.8594 18.0282L18.0281 17.8594Z" fill="white"/>
</svg>
